<?xml version="1.0" encoding="utf-8"?>
<!DOCTYPE svg PUBLIC "-//W3C//DTD SVG 1.1//EN" "http://www.w3.org/Graphics/SVG/1.1/DTD/svg11.dtd">
<svg version="1.1" id="mail_icon" xmlns="http://www.w3.org/2000/svg" xmlns:xlink="http://www.w3.org/1999/xlink" x="0px" y="0px"
	 width="50px" height="50px" viewBox="0 0 50 50" enable-background="new 0 0 50 50" xml:space="preserve">
<path fill="#CCCCCC" d="M35.5,16h-21c-0.83,0-1.5,0.67-1.5,1.5v14c0,0.83,0.67,1.5,1.5,1.5h21c0.83,0,1.5-0.67,1.5-1.5v-14
	C37,16.67,36.33,16,35.5,16z M35.529,17l-9.899,8.68L14.49,17H35.529z M36,31.5c0,0.279-0.221,0.5-0.5,0.5h-21
	c-0.28,0-0.5-0.221-0.5-0.5V17.88l11.67,9.101L36,17.93V31.5z"/>
</svg>
