<?xml version="1.0" encoding="utf-8"?>
<!DOCTYPE svg PUBLIC "-//W3C//DTD SVG 1.1//EN" "http://www.w3.org/Graphics/SVG/1.1/DTD/svg11.dtd">
<svg version="1.1" id="home_logo_5" xmlns="http://www.w3.org/2000/svg" xmlns:xlink="http://www.w3.org/1999/xlink" x="0px"
	 y="0px" width="180px" height="85px" viewBox="0 0 180 85" enable-background="new 0 0 180 85" xml:space="preserve">
<path fill="#8F8F8F" d="M114.943,17.466C108.37,10.791,99.628,7.068,90.324,7h-0.273C70.877,7,55.152,22.468,54.999,41.488
	c-0.068,9.544,3.517,18.472,10.107,25.183C71.61,73.26,80.319,76.932,89.641,77h0.24c19.206,0,34.965-15.57,35.118-34.71
	C125.066,32.968,121.5,24.142,114.943,17.466z M89.914,74.2h-0.24c-17.687-0.12-31.995-14.648-31.875-32.371
	C57.902,24.192,72.328,9.834,89.965,9.834h0.188c8.572,0.051,16.63,3.449,22.674,9.543c6.062,6.112,9.354,14.171,9.306,22.689
	C122.012,60.098,107.857,74.2,89.914,74.2z"/>
<path fill="#8F8F8F" d="M91.674,51.355c-0.428,0.494-0.957,0.957-1.606,1.367c-0.632,0.407-1.313,0.769-2.065,1.092
	c-0.735,0.307-1.502,0.547-2.306,0.732c-0.802,0.172-1.588,0.258-2.354,0.258c-2.817,0-4.918-0.785-6.336-2.34
	c-1.417-1.57-2.117-4.063-2.117-7.461v-5.378h-3.722v-4.132h3.722v-4.269l4.867-1.399v5.668h9.852v4.132h-9.852v5.378
	c0,1.93,0.375,3.313,1.092,4.184c0.733,0.869,1.742,1.297,3.039,1.297c0.683,0,1.299-0.086,1.845-0.238
	c0.545-0.17,1.042-0.375,1.485-0.632c0.443-0.238,0.837-0.528,1.212-0.818c0.358-0.31,0.682-0.582,0.99-0.819L91.674,51.355z"/>
<polygon fill="#8F8F8F" points="111.494,50.145 111.494,54.275 105.417,54.275 98.963,46.507 97.631,46.507 97.631,54.275
	92.766,54.275 92.766,32.114 89.674,32.114 89.674,27.983 97.631,27.983 97.631,42.975 98.758,42.975 104.922,35.495
	110.676,35.495 103.078,44.064 107.994,50.145 "/>
</svg>
