<?xml version="1.0" encoding="utf-8"?>
<!DOCTYPE svg PUBLIC "-//W3C//DTD SVG 1.1//EN" "http://www.w3.org/Graphics/SVG/1.1/DTD/svg11.dtd">
<svg version="1.1" id="Ebene_1" xmlns="http://www.w3.org/2000/svg" xmlns:xlink="http://www.w3.org/1999/xlink" x="0px" y="0px"
	 width="95px" height="95px" viewBox="0 0 95 95" enable-background="new 0 0 95 95" xml:space="preserve">
<circle fill="#F2F2F2" cx="47.5" cy="47.5" r="47.5"/>
<path fill="none" stroke="#000000" stroke-miterlimit="10" d="M38.759,32.51c-0.242-0.583-0.402-1.212-0.467-1.874
	c-0.343-3.582,2.281-6.764,5.864-7.108c3.582-0.344,6.764,2.281,7.109,5.863c0.066,0.695,0.021,1.375-0.121,2.023"/>
<path fill="none" stroke="#000000" stroke-miterlimit="10" d="M13.042,44.324c0,0,0.574,2.93,2.848,4.384
	c2.3,1.471,5.481,0.308,5.481,0.308s2.695-1.208,2.683-4.763c-0.011-3.252-1.947-4.211-2.969-4.211
	c-1.068,0-3.351,1.188-2.919,4.449c0.555,4.194,3.154,5.16,5.326,5.652c2.171,0.492,3.77,0,3.77,0"/>
<g>
	<circle cx="58" cy="46" r="2"/>
</g>
<path fill="none" stroke="#F96464" stroke-width="5" stroke-miterlimit="10" d="M39.554,66.227"/>
<g>
	<path d="M62,32c0,0-0.297,0-0.277,0c3.402,0,4.877,1.306,4.877,1.306l-6.219,6.076C62.701,41.471,64.191,43.05,65,46h2.959
		c0.11,0,0.231-0.004,0.359-0.004C69.061,45.996,70,46.133,70,48v5c0,0.719,0.125,2-2,2h-3c-0.848,2.95-2.447,5.655-4.896,7.771
		l-0.061,0.465l1.406,6.677c0,0,0.361,1.59-2.65,1.59c-3.32,0-3.336-0.853-3.336-0.853l-1.6-4.422
		c-2.172,0.763-4.541,1.188-7.025,1.188c-2.43,0-4.752-0.401-6.885-1.133l-0.34-0.132l-1.626,4.491c0,0-0.016,0.845-3.334,0.845
		c-3.012,0-2.651-1.604-2.651-1.604l1.406-6.707l-0.069-0.728c-3.341-2.987-5.401-7.076-5.401-11.59
		c0-9.146,8.462-16.557,18.901-16.557c2.775,0,5.408,0.439,7.781,1.38c0,0,3.661-3.681,7.046-3.681 M61.665,31L61.665,31
		c-3.023,0-6.103,2.51-7.266,3.527c-2.416-0.879-4.956-1.275-7.562-1.275c-10.973,0-19.901,7.9-19.901,17.581
		c0,4.524,1.929,8.808,5.442,12.081l0.019,0.198l-1.375,6.562c-0.031,0.137-0.17,0.931,0.434,1.686
		c0.597,0.746,1.672,1.126,3.196,1.126c3.249,0,4.167-0.828,4.312-1.607l1.252-3.459c2.141,0.665,4.355,0.996,6.621,0.996
		c2.195,0,4.348-0.314,6.414-0.937l1.232,3.406c0.145,0.783,1.062,1.617,4.314,1.617c1.528,0,2.605-0.378,3.2-1.124
		c0.6-0.75,0.459-1.537,0.426-1.688l-1.356-6.438c2.126-1.935,3.727-4.422,4.669-7.252H68c1.04,0,1.799-0.256,2.32-0.782
		c0.691-0.697,0.68-1.617,0.68-2.112V53v-5c0-1.371-0.465-3.004-2.682-3.004l-0.21,0.002L67.959,45H65.74
		c-0.815-2.419-2.153-3.959-3.9-5.591l5.456-5.288l0.818-0.794l-0.894-0.805C67.042,32.381,65.373,31,61.734,31H61.665L61.665,31
		L61.665,31z"/>
</g>
</svg>
