<?xml version="1.0" encoding="utf-8"?>
<!DOCTYPE svg PUBLIC "-//W3C//DTD SVG 1.1//EN" "http://www.w3.org/Graphics/SVG/1.1/DTD/svg11.dtd">
<svg version="1.1" id="home_logo_4" xmlns="http://www.w3.org/2000/svg" xmlns:xlink="http://www.w3.org/1999/xlink" x="0px"
	 y="0px" width="180px" height="85px" viewBox="0 0 180 85" enable-background="new 0 0 180 85" xml:space="preserve">
<path fill="#8F8F8F" d="M90.459,25.106v-1.394c0-1.148-0.942-2.091-2.09-2.091s-2.092,0.943-2.092,2.091
	c0,0.533,0,0.533,0.123,0.697l5.7,7.544c0.983,1.312,0.983,1.312,0.983,2.624c0,2.583-2.133,4.715-4.715,4.715
	c-2.584,0-4.716-2.132-4.716-4.715v-1.394c0-0.369,0.287-0.656,0.656-0.656h1.312c0.369,0,0.656,0.287,0.656,0.656v1.394
	c0,1.147,0.943,2.091,2.092,2.091c1.147,0,2.09-0.943,2.09-2.091c0-0.533,0-0.533-0.123-0.697l-5.698-7.544
	c-0.984-1.312-0.984-1.312-0.984-2.624c0-2.583,2.132-4.715,4.716-4.715c2.582,0,4.715,2.132,4.715,4.715v1.394
	c0,0.369-0.287,0.656-0.656,0.656h-1.313C90.746,25.762,90.459,25.475,90.459,25.106z"/>
<path fill="#8F8F8F" d="M107.548,23.753v14.883c0,0.369-0.287,0.656-0.655,0.656h-1.313c-0.369,0-0.656-0.287-0.656-0.656v-8.159
	h-5.223v8.159c0,0.369-0.287,0.656-0.656,0.656h-1.313c-0.369,0-0.656-0.287-0.656-0.656V23.753c0-2.583,2.41-4.715,5.033-4.715
	c0.05,0,0.643,0.001,0.69,0.002C105.318,19.12,107.548,21.219,107.548,23.753z M104.924,23.753c0-1.105-1.053-2.021-2.143-2.087
	c-0.042-0.003-0.629-0.004-0.672-0.004c-1.188,0-2.408,0.943-2.408,2.091v4.1h5.223V23.753z"/>
<path fill="#8F8F8F" d="M65,7v70h52V7H65z M114,74H68V10h46V74z"/>
<path fill="#8F8F8F" d="M93.662,63.199v1.312c0,0.328-0.287,0.656-0.656,0.656h-4.838c-0.738,0-1.313-0.615-1.313-1.312V44.527
	c0-0.369,0.287-0.656,0.656-0.656h1.313c0.328,0,0.656,0.287,0.656,0.656v18.016h3.525C93.375,62.543,93.662,62.83,93.662,63.199z"
	/>
<path fill="#8F8F8F" d="M107.385,44.527v1.313c0,0.369-0.287,0.656-0.656,0.656h-2.845v18.015c0,0.328-0.286,0.656-0.655,0.656
	h-1.313c-0.369,0-0.656-0.328-0.656-0.656V46.496h-3.479c-0.369,0-0.656-0.287-0.656-0.656v-1.313c0-0.369,0.287-0.656,0.656-0.656
	h8.947C107.098,43.871,107.385,44.158,107.385,44.527z"/>
</svg>
