<?xml version="1.0" encoding="utf-8"?>
<!DOCTYPE svg PUBLIC "-//W3C//DTD SVG 1.1//EN" "http://www.w3.org/Graphics/SVG/1.1/DTD/svg11.dtd">
<svg version="1.1" id="home_logo_2" xmlns="http://www.w3.org/2000/svg" xmlns:xlink="http://www.w3.org/1999/xlink" x="0px"
	 y="0px" width="180px" height="85px" viewBox="0 0 180 85" enable-background="new 0 0 180 85" xml:space="preserve">
<path fill="none" stroke="#8F8F8F" stroke-linecap="round" stroke-linejoin="bevel" stroke-miterlimit="10" d="M64.523,49.641
	c7.791-8.115,22.894-25.44,34.372-29.498"/>
<path fill="none" stroke="#8F8F8F" stroke-linecap="round" stroke-linejoin="bevel" stroke-miterlimit="10" d="M70.962,39.337
	c0.643-5.279,5.653-13.897,7.567-14.221c-0.888,2.042,0.32,3.034,0.32,3.034c4.96-7.016,5.922-8.126,13.572-12.342
	c-1.123,1.909-2.173,4.736-2.173,4.736c6.988-7.867,20.001-13.402,30.034-12.829"/>
<path fill="none" stroke="#8F8F8F" stroke-linecap="round" stroke-linejoin="bevel" stroke-miterlimit="10" d="M75.532,41.84
	c4.636,1.801,11.28-2.406,11.432-2.503c-1.999,0.269-4.25-1.869-4.25-1.869c5.02,0.721,17.394-3.173,17.394-3.173
	c-2.213-0.184-2.053-2.405-2.053-2.405c4.004,0.411,13.801-8.137,13.801-8.137s-5.16-0.311-6.635-1.333
	c-0.947-0.655,7.051-3.626,7.602-6.62c0.705-3.838,5.275-6.982,7.752-8.096"/>
<path fill="#8F8F8F" d="M74.161,59.712c0.282,1.634-4.802,1.474-6.543,1.697c-0.235,1.249,0.142,2.401,0.283,3.618
	c0.753,0,2.259,0.033,2.636,0.705c0.188,1.313-1.601,1.218-2.26,1.377c-0.094,3.363,0.941,7.238,1.177,10.891
	c0.094,1.505,0.706,3.715-0.33,4.131c-3.671,1.475-3.201-1.377-4.66-18.8c-0.188-1.858-1.13-3.588,0.8-3.972
	c1.036-0.032,1.742,0.096,2.683-0.032C69.971,59.039,73.925,58.366,74.161,59.712z"/>
<path fill="#8F8F8F" d="M78.726,81.555c0,0.801-0.471,0.736-0.565,0.77c-0.847,0.287-1.506,0.064-1.742-0.129
	c-1.036-0.704-0.941-2.018-0.895-3.233c0.094-4.739,0.424-11.467,0.424-15.981c0.047-1.697-0.518-3.203,1.271-3.685
	c0.988-0.319,1.459,0.545,1.601,1.281c0.518,2.019,0.188,4.388,0.282,6.246C79.385,71.498,78.35,76.848,78.726,81.555z"/>
<path fill="#8F8F8F" d="M85.08,59.359c0.706,1.248,3.483,10.824,3.86,12.521l-0.471-10.568c-0.047-1.217,0.471-2.563,1.742-2.242
	c1.507-0.191,1.459,0.896,1.459,1.666c-0.094,2.242,0.33,5.125,0.096,7.719c-0.425,4.74,0.141,9.607-0.896,13.611
	c-0.235,0.802-2.166,0.736-2.542-1.28c-0.094-0.545-0.706-2.915-0.706-3.651c0-0.929-2.495-8.392-2.542-8.486
	c-0.235-0.608-0.141-0.994-0.612-1.729c0,0.576-0.142,10.058-0.142,10.763c0,1.952,0.283,4.803-2.118,4.707
	c-1.553-0.063-1.083-1.729-1.036-3.074c0.047-0.896,0-1.857,0-2.563c-0.141-3.779,0.376-9.129,0.376-12.844
	c0-1.665-0.094-3.459,0.471-4.965C82.491,58.432,83.903,58.143,85.08,59.359z"/>
<path fill="#8F8F8F" d="M98.165,59.039c0.61-0.064,2.776,0.225,3.671,0.641c0.895,0.354,1.555,1.346,1.883,2.051
	c0.754,1.473-1.787,2.082-2.212,1.44c-0.753-1.153-0.753-1.409-2.071-1.666c-2.447-0.479-2.354,2.724-2.399,4.101
	c-0.142,3.972-0.188,7.719,0.423,11.307c0.188,1.217,0.659,4.291,2.59,4.035c3.061-0.385,0.753-1.249,3.105-1.762
	c0.896-0.192,1.555,0.672,1.555,0.832c0.094,0.48-0.659,1.024-0.895,1.281c-1.979,1.922-6.731,1.953-8.521-0.128
	c-1.035-1.153-1.271-2.979-1.506-5.028c-0.096-1.474-0.33-3.748-0.377-5.67c-0.094-3.074-0.282-6.758,0.518-8.551
	C94.445,60.736,96.141,59.264,98.165,59.039z"/>
<path fill="#8F8F8F" d="M114.169,58.751c0.565,0,1.13,0,1.13,0.319c0.424,6.919,0.754,14.83,0.801,22.101
	c0,0.544-0.377,1.024-0.895,1.218c-0.659,0.127-0.941,0.191-1.646-0.16c-0.519-0.705-0.425-1.441-0.425-2.242
	c0.048-3.299-0.142-6.727-0.377-9.063c-0.235-0.289-2.918-0.063-3.766,0.063c-0.425,0-0.378,5.445-0.188,7.847
	c0.096,1.058,0.33,2.658-0.328,3.459c-0.33,0.417-1.084,0.226-1.742,0.192c-1.506,0.031-0.896-3.939-0.896-6.471
	c0-4.354,0.048-8.423,0.048-12.715c0-1.057-0.142-2.435,0.047-3.203c0.142-0.544,0.801-1.281,2.118-0.929
	c1.224,0.385,0.235,8.968,0.849,9.385c0,0.257,3.813-0.032,3.858-0.063c0.565-0.48-0.519-7.654,0.188-8.904
	C113.229,59.135,113.275,58.751,114.169,58.751z"/>
<path fill="none" stroke="#8F8F8F" stroke-miterlimit="10" d="M110.275,18.784c1.006,2.648,1.558,5.521,1.558,8.523
	c0,13.255-10.745,24-24,24s-24-10.745-24-24c0-13.255,10.745-24,24-24c6.75,0,12.851,2.787,17.211,7.272"/>
</svg>
