<?xml version="1.0" encoding="utf-8"?>
<!-- Generator: Adobe Illustrator 16.0.4, SVG Export Plug-In . SVG Version: 6.00 Build 0)  -->
<!DOCTYPE svg PUBLIC "-//W3C//DTD SVG 1.1//EN" "http://www.w3.org/Graphics/SVG/1.1/DTD/svg11.dtd">
<svg version="1.1" id="Ebene_1" xmlns="http://www.w3.org/2000/svg" xmlns:xlink="http://www.w3.org/1999/xlink" x="0px" y="0px"
	 width="95px" height="95px" viewBox="0 0 95 95" enable-background="new 0 0 95 95" xml:space="preserve">
<circle fill="#F2F2F2" cx="47.5" cy="47.5" r="47.5"/>
<circle fill="none" stroke="#000000" stroke-miterlimit="10" cx="26" cy="36" r="3"/>
<circle fill="none" stroke="#000000" stroke-miterlimit="10" cx="67" cy="36" r="3"/>
<circle fill="none" stroke="#000000" stroke-miterlimit="10" cx="47.253" cy="31" r="4"/>
<polygon fill="none" stroke="#000000" stroke-linejoin="round" stroke-miterlimit="10" points="27,39.25 35,46.031 47,35.172 
	59,46.203 67,39.139 63,56.5 31,56.5 "/>
<g>
	<path d="M62.25,57c1.381,0,2.625,1.119,2.625,2.5S63.881,62,62.5,62h-32c-1.381,0-2.5-1.119-2.5-2.5s1.119-2.5,2.5-2.5H62 M62.5,56
		h-32c-1.93,0-3.5,1.57-3.5,3.5s1.57,3.5,3.5,3.5h32c1.93,0,3.5-1.57,3.5-3.5S64.43,56,62.5,56L62.5,56z"/>
</g>
</svg>
