<?xml version="1.0" encoding="utf-8"?>
<!DOCTYPE svg PUBLIC "-//W3C//DTD SVG 1.1//EN" "http://www.w3.org/Graphics/SVG/1.1/DTD/svg11.dtd">
<svg version="1.1" id="home_logo_1" xmlns="http://www.w3.org/2000/svg" xmlns:xlink="http://www.w3.org/1999/xlink" x="0px"
	 y="0px" width="180px" height="85px" viewBox="0 0 180 85" enable-background="new 0 0 180 85" xml:space="preserve">
<path fill="#8F8F8F" d="M69.639,66.886v1.507c0,1.799-0.168,3.047-0.505,3.746c-0.551,1.157-1.638,1.735-3.259,1.735
	c-2.112,0-3.505-0.792-4.179-2.375c-0.551-1.278-0.826-3.715-0.826-7.308V63.23c0-0.307,0.015-0.623,0.045-0.959
	c0-1.612-0.379-2.701-1.137-3.269c-0.758-0.563-1.848-0.845-3.273-0.845H51.14v12.275c0,0.916,0.053,1.498,0.16,1.742
	c0.106,0.243,0.334,0.438,0.685,0.571c0.35,0.138,1.065,0.224,2.146,0.252c1.081,0.03,2.215,0.046,3.403,0.046v0.411H38.945v-0.457
	c3.197,0,5.116-0.122,5.755-0.366c0.304-0.121,0.518-0.297,0.64-0.527c0.121-0.229,0.183-0.782,0.183-1.672V46.889
	c0-0.854-0.062-1.39-0.183-1.604c-0.062-0.122-0.259-0.244-0.594-0.366c-0.884-0.336-2.817-0.504-5.801-0.504v-0.411h18.681
	c3.289,0,5.907,0.885,7.856,2.65c1.553,1.404,2.329,2.854,2.329,4.348c0,1.77-0.611,3.217-1.834,4.346
	c-1.468,1.371-3.792,2.24-6.972,2.606c3.246,0.639,5.39,2.446,6.432,5.428c0.524,1.49,0.786,3.741,0.786,6.751
	c0,0.885,0.077,1.521,0.231,1.916c0.154,0.396,0.524,0.594,1.109,0.594c0.647,0,1.094-0.511,1.341-1.527
	c0.247-1.021,0.37-2.43,0.37-4.229L69.639,66.886L69.639,66.886z M51.14,57.659h4.231c2.213,0,3.85-0.414,4.912-1.241
	c1.273-0.98,1.911-2.637,1.911-4.968c0-2.574-0.523-4.392-1.569-5.449s-2.783-1.587-5.208-1.587h-2.183
	c-0.637,0-1.108,0.046-1.41,0.138c-0.303,0.093-0.493,0.284-0.569,0.575c-0.076,0.291-0.114,0.881-0.114,1.771L51.14,57.659
	L51.14,57.659z"/>
<path fill="#8F8F8F" d="M87.019,63.188h-8.801l-1.407,4.037c-0.363,1.01-0.544,1.881-0.544,2.615c0,1.133,0.426,1.942,1.279,2.432
	c0.852,0.49,2.056,0.734,3.608,0.734v0.457H69.552v-0.457c2.101,0,3.73-0.793,4.887-2.378c0.64-0.885,1.462-2.715,2.467-5.489
	l7.719-21.5h0.913l9.866,26.807c0.455,1.25,0.912,1.99,1.369,2.223c0.457,0.229,1.826,0.342,4.107,0.342v0.457h-16.85V73.01
	c2.283,0,3.852-0.083,4.704-0.252c0.853-0.168,1.279-0.512,1.279-1.029l-0.092-0.459L87.019,63.188z M86.792,62.684l-4.175-11.629
	l-4.173,11.629H86.792z"/>
<path fill="#8F8F8F" d="M116.188,51.402l-5.77,22.242h-1.553l-10.049-26.67c-0.457-1.25-0.922-1.988-1.396-2.222
	c-0.473-0.229-1.759-0.343-3.857-0.343V44h15.576v0.411c-1.857,0-3.146,0.099-3.859,0.297c-0.717,0.199-1.073,0.588-1.073,1.167
	c0,0.309,0.092,0.673,0.274,1.102l7.17,19.178l4.17-15.896l-0.973-3.269c-0.369-1.229-0.813-1.967-1.336-2.211
	c-0.523-0.244-1.859-0.366-4.013-0.366v-0.411h15.646v0.411c-1.851,0-3.133,0.099-3.846,0.297c-0.713,0.199-1.068,0.618-1.068,1.263
	c0,0.334,0.063,0.67,0.187,1.006l5.896,19.225l5.027-14.234c0.516-1.492,0.771-2.716,0.771-3.66c0-2.595-1.826-3.892-5.479-3.892
	v-0.411h11.784v0.411c-2.163,0-3.764,1.112-4.796,3.339c-0.153,0.336-0.718,1.83-1.688,4.482l-7.49,21.408h-1.508L116.188,51.402z"
	/>
<path fill="#8F8F8F" d="M103.688,18.402l-5.77,22.243h-1.553L86.317,13.976c-0.457-1.25-0.921-1.989-1.393-2.219
	c-0.473-0.229-1.759-0.343-3.86-0.343v-0.411h15.577v0.411c-1.854,0-3.146,0.099-3.856,0.297c-0.72,0.199-1.074,0.588-1.074,1.167
	c0,0.306,0.092,0.673,0.272,1.1l7.17,19.178l4.172-15.896l-0.975-3.269c-0.369-1.228-0.813-1.964-1.336-2.209
	c-0.521-0.246-1.859-0.368-4.011-0.368v-0.411h15.647v0.411c-1.853,0-3.133,0.099-3.846,0.297c-0.715,0.199-1.068,0.618-1.068,1.26
	c0,0.335,0.063,0.671,0.185,1.007l5.894,19.223l5.031-14.234c0.512-1.494,0.771-2.716,0.771-3.662c0-2.593-1.827-3.89-5.48-3.89
	v-0.412h11.784v0.411c-2.163,0-3.762,1.113-4.796,3.339c-0.149,0.336-0.716,1.83-1.688,4.483l-7.49,21.409h-1.508L103.688,18.402z"
	/>
<path fill="#8F8F8F" d="M133.835,37.781c0.407,0.792,0.835,1.311,1.283,1.556c0.448,0.246,0.957,0.369,1.528,0.369
	c0.922,0,1.533-0.522,1.832-1.572c0.299-1.048,0.445-2.812,0.445-5.291h0.532c0,3.339-0.188,5.503-0.574,6.487
	c-0.685,1.727-2.241,2.587-4.68,2.587c-1.396,0-2.603-0.743-3.612-2.228c-0.219-0.33-0.695-1.183-1.438-2.558
	c-0.93,1.759-1.887,2.97-2.871,3.63c-1.178,0.771-2.873,1.155-5.092,1.155c-1.313,0-2.483-0.628-3.521-1.884
	c-1.12-1.364-1.68-3.044-1.68-5.037c0-0.765,0.066-1.488,0.203-2.171c0.14-0.682,0.396-1.448,0.781-2.293
	c0.711-1.666,1.58-2.984,2.604-3.953c1.024-0.968,2.087-1.576,3.183-1.822c-0.307-0.545-0.549-1.14-0.729-1.782
	c-0.184-0.641-0.271-1.331-0.271-2.068c0-1.447,0.444-2.771,1.338-3.972s2.063-1.802,3.52-1.802c1.314,0,2.355,0.328,3.127,0.982
	c0.77,0.656,1.15,1.584,1.15,2.786c0,1.092-0.438,2.089-1.315,2.99c-0.741,0.765-1.741,1.406-3.004,1.925l4.565,8.744l2.523-4.475
	c0.518-0.958,0.773-1.657,0.773-2.095c0-0.602-0.345-1.005-1.029-1.211c-0.688-0.205-1.84-0.308-3.458-0.308v-0.41h9.911v0.41
	c-1.146,0-2.149,0.211-3.012,0.634c-0.858,0.424-1.553,1.113-2.067,2.068l-3.358,6.103L133.835,37.781z M128.895,36.593
	l-5.875-11.469c-1.062,0.301-1.85,0.711-2.365,1.229c-0.703,0.682-1.211,1.747-1.51,3.195c-0.104,0.519-0.162,1.12-0.162,1.802
	c0,1.12,0.156,2.206,0.472,3.257c0.313,1.051,0.755,1.987,1.323,2.806c0.683,1.038,1.365,1.815,2.063,2.334
	c0.689,0.521,1.354,0.778,1.979,0.778c0.731,0,1.436-0.342,2.102-1.024C127.58,38.818,128.24,37.85,128.895,36.593z M126.459,23.489
	c1.057-0.461,1.814-1.168,2.273-2.119c0.381-0.788,0.566-1.807,0.566-3.056c0-0.761-0.193-1.42-0.589-1.978
	c-0.396-0.557-0.928-0.835-1.604-0.835c-0.946,0-1.668,0.299-2.151,0.897c-0.488,0.597-0.729,1.264-0.729,1.997
	c0,0.571,0.105,1.046,0.322,1.426L126.459,23.489z"/>
</svg>
