<?xml version="1.0" encoding="utf-8"?>
<!DOCTYPE svg PUBLIC "-//W3C//DTD SVG 1.1//EN" "http://www.w3.org/Graphics/SVG/1.1/DTD/svg11.dtd">
<svg version="1.1" id="Ebene_1" xmlns="http://www.w3.org/2000/svg" xmlns:xlink="http://www.w3.org/1999/xlink" x="0px" y="0px"
	 width="95px" height="95px" viewBox="0 0 95 95" enable-background="new 0 0 95 95" xml:space="preserve">
<circle fill="#F2F2F2" cx="47.5" cy="47.5" r="47.5"/>
<defs>
	<filter id="Adobe_OpacityMaskFilter" filterUnits="userSpaceOnUse" x="25.279" y="24.615" width="44.799" height="44.805">
		<feColorMatrix  type="matrix" values="1 0 0 0 0  0 1 0 0 0  0 0 1 0 0  0 0 0 1 0"/>
	</filter>
</defs>
<mask maskUnits="userSpaceOnUse" x="25.279" y="24.615" width="44.799" height="44.805" id="SVGID_1_">
	<g filter="url(#Adobe_OpacityMaskFilter)">
		<g>

				<rect x="23.744" y="17.461" transform="matrix(-0.7071 -0.7071 0.7071 -0.7071 36.2123 77.9217)" fill="#FFFFFF" width="21" height="28"/>

				<rect x="48.528" y="49.245" transform="matrix(-0.7071 0.7071 -0.7071 -0.7071 148.9879 57.7774)" fill="#FFFFFF" width="28" height="21"/>
		</g>
	</g>
</mask>
<g mask="url(#SVGID_1_)">
	<path d="M34.532,25.615c0.575,0,1.173,0.236,1.637,0.7l32.213,32.212c0.868,0.869,0.937,2.205,0.157,2.986l-6.365,6.363
		c-0.363,0.363-0.848,0.543-1.349,0.543c-0.575,0-1.173-0.236-1.636-0.699L26.976,35.507c-0.868-0.868-0.938-2.205-0.157-2.986
		l6.364-6.364C33.546,25.794,34.031,25.615,34.532,25.615 M34.532,24.615L34.532,24.615c-0.787,0-1.517,0.297-2.056,0.835
		l-6.364,6.364c-1.17,1.17-1.1,3.144,0.157,4.4l32.213,32.213c0.63,0.63,1.484,0.992,2.343,0.992c0.787,0,1.517-0.297,2.056-0.836
		l6.365-6.363c1.168-1.171,1.098-3.145-0.157-4.4L36.875,25.608C36.245,24.977,35.391,24.615,34.532,24.615L34.532,24.615z"/>
</g>
<rect x="27.683" y="34.85" transform="matrix(0.7071 -0.7071 0.7071 0.7071 -15.2772 33.8178)" width="11" height="1"/>
<rect x="53.018" y="61.013" transform="matrix(0.707 -0.7072 0.7072 0.707 -26.9431 57.989)" width="7" height="1"/>
<defs>
	<filter id="Adobe_OpacityMaskFilter_1_" filterUnits="userSpaceOnUse" x="22.19" y="23.021" width="49.167" height="49.167">
		<feColorMatrix  type="matrix" values="1 0 0 0 0  0 1 0 0 0  0 0 1 0 0  0 0 0 1 0"/>
	</filter>
</defs>
<mask maskUnits="userSpaceOnUse" x="22.19" y="23.021" width="49.167" height="49.167" id="SVGID_2_">
	<g filter="url(#Adobe_OpacityMaskFilter_1_)">

			<rect x="25.465" y="25.889" transform="matrix(0.7071 -0.7071 0.7071 0.7071 -10.967 49.7771)" fill="#FFFFFF" width="58.277" height="24.477"/>
	</g>
</mask>
<g mask="url(#SVGID_2_)">
	<path d="M61.608,24.021c0.354,0,0.689,0.138,0.94,0.39l7.418,7.418c0.519,0.519,0.519,1.363,0,1.882L32.88,70.799
		c-0.251,0.251-0.585,0.39-0.941,0.39c-0.356,0-0.69-0.139-0.941-0.39l-7.418-7.418c-0.251-0.251-0.39-0.586-0.39-0.941
		s0.138-0.69,0.39-0.941l37.087-37.087C60.918,24.16,61.253,24.021,61.608,24.021 M61.607,23.021c-0.596,0-1.192,0.228-1.647,0.683
		L22.873,60.791c-0.91,0.91-0.91,2.387,0,3.297l7.418,7.418c0.455,0.455,1.052,0.683,1.648,0.683c0.597,0,1.193-0.228,1.648-0.683
		l37.087-37.087c0.91-0.91,0.91-2.386,0-3.296l-7.418-7.418C62.801,23.249,62.204,23.021,61.607,23.021L61.607,23.021z"/>
</g>
<polyline fill="none" stroke="#000000" stroke-miterlimit="10" points="62.527,37.118 37.457,62.189 33.304,61.392 32.507,57.239
	57.578,32.168 "/>
<g>
	<path d="M55.016,30.063l9.3,9.3L38.816,64.861l-12.881,4.264l3.604-13.586L55.016,30.063 M55.016,28.649L28.642,55.022
		l-4.146,15.633l14.861-4.919l26.374-26.373L55.016,28.649L55.016,28.649z"/>
</g>
<line fill="none" stroke="#000000" stroke-miterlimit="10" x1="37.219" y1="62.002" x2="38.841" y2="65.084"/>
<line fill="none" stroke="#000000" stroke-miterlimit="10" x1="29.286" y1="55.254" x2="32.325" y2="57.006"/>
<rect x="55.26" y="62.427" transform="matrix(0.7071 -0.7071 0.7071 0.7071 -26.7 61.395)" width="11" height="1"/>
<rect x="31.097" y="39.093" transform="matrix(0.7071 -0.7071 0.7071 0.7071 -17.8628 36.0604)" width="7" height="1"/>
</svg>
