<?xml version="1.0" encoding="utf-8"?>
<!DOCTYPE svg PUBLIC "-//W3C//DTD SVG 1.1//EN" "http://www.w3.org/Graphics/SVG/1.1/DTD/svg11.dtd">
<svg version="1.1" id="home_logo_6" xmlns="http://www.w3.org/2000/svg" xmlns:xlink="http://www.w3.org/1999/xlink" x="0px"
	 y="0px" width="180px" height="85px" viewBox="0 0 180 85" enable-background="new 0 0 180 85" xml:space="preserve">
<path fill="#8F8F8F" d="M34.9,19.661v45.755h2.195V19.661H34.9z"/>
<path fill="#8F8F8F" d="M43.092,25.542c0-0.977,0.469-1.463,1.404-1.463c0.447,0,0.805,0.122,1.066,0.365
	c0.265,0.244,0.396,0.609,0.396,1.098c0,0.37-0.123,0.691-0.365,0.964c-0.243,0.272-0.608,0.409-1.097,0.409
	c-0.449,0-0.794-0.137-1.039-0.409C43.215,26.233,43.092,25.913,43.092,25.542z M43.387,65.416V35.634h2.192v29.782H43.387z"/>
<path fill="#8F8F8F" d="M61.128,65.416h-2.194V40.812c0-0.896-0.25-1.658-0.746-2.28c-0.496-0.624-1.205-0.938-2.121-0.938h-2.896
	v27.823h-2.194V35.634h5.09c0.82,0,1.547,0.133,2.181,0.396c0.633,0.263,1.165,0.634,1.595,1.111c0.43,0.479,0.75,1.043,0.967,1.694
	c0.213,0.654,0.32,1.361,0.32,2.121L61.128,65.416L61.128,65.416z"/>
<path fill="#8F8F8F" d="M76.925,60.646c0,0.765-0.106,1.472-0.321,2.121c-0.215,0.654-0.537,1.219-0.965,1.697
	c-0.429,0.48-0.959,0.854-1.595,1.127c-0.635,0.271-1.36,0.408-2.18,0.408c-0.839,0-1.575-0.137-2.208-0.408
	c-0.633-0.273-1.166-0.646-1.596-1.127c-0.43-0.479-0.75-1.043-0.965-1.697c-0.216-0.649-0.322-1.356-0.322-2.121V35.634h4.975
	c0.742,0,1.335,0.055,1.785,0.161c0.449,0.106,0.848,0.259,1.199,0.453V19.662h2.193L76.925,60.646L76.925,60.646z M74.73,40.373
	c0-0.117-0.017-0.33-0.043-0.644c-0.029-0.313-0.133-0.625-0.31-0.938c-0.174-0.313-0.457-0.591-0.849-0.834
	c-0.391-0.243-0.944-0.366-1.666-0.366h-2.896v23.259c0,0.897,0.249,1.651,0.748,2.27c0.497,0.611,1.215,0.922,2.148,0.922
	c0.918,0,1.625-0.311,2.121-0.922c0.496-0.615,0.746-1.369,0.746-2.27V40.373L74.73,40.373z"/>
<path fill="#8F8F8F" d="M80.919,58.656h2.194v2.194c0,0.896,0.25,1.65,0.746,2.269c0.498,0.612,1.214,0.922,2.149,0.922
	c0.916,0,1.624-0.31,2.12-0.922c0.499-0.615,0.747-1.369,0.747-2.269v-3.688c0-0.645-0.103-1.242-0.308-1.799
	c-0.205-0.559-0.479-1.096-0.819-1.608c-0.342-0.519-0.731-1.01-1.171-1.479c-0.439-0.469-0.885-0.938-1.331-1.403
	c-0.547-0.546-1.077-1.101-1.595-1.668c-0.518-0.563-0.979-1.166-1.391-1.8c-0.408-0.637-0.736-1.305-0.979-2.006
	c-0.244-0.699-0.366-1.463-0.366-2.28v-2.724c0-0.778,0.106-1.496,0.323-2.148c0.213-0.653,0.535-1.219,0.965-1.696
	c0.428-0.479,0.96-0.849,1.593-1.11c0.634-0.265,1.37-0.396,2.209-0.396c0.819,0,1.546,0.135,2.179,0.396
	c0.633,0.264,1.166,0.635,1.596,1.11c0.429,0.479,0.748,1.043,0.965,1.696c0.213,0.652,0.32,1.37,0.32,2.148v2.399h-2.192v-2.573
	c0-0.896-0.249-1.658-0.747-2.283c-0.497-0.623-1.205-0.937-2.12-0.937c-0.938,0-1.651,0.312-2.149,0.937s-0.746,1.387-0.746,2.283
	v2.896c0,0.665,0.104,1.281,0.322,1.857c0.213,0.573,0.491,1.114,0.832,1.623c0.342,0.508,0.731,1,1.172,1.479
	c0.438,0.479,0.881,0.951,1.33,1.42c0.547,0.563,1.078,1.132,1.594,1.693c0.518,0.566,0.976,1.16,1.375,1.787
	c0.399,0.623,0.721,1.281,0.966,1.979c0.245,0.689,0.366,1.432,0.366,2.208v3.479c0,0.762-0.108,1.471-0.323,2.121
	c-0.216,0.653-0.537,1.219-0.966,1.698c-0.428,0.479-0.961,0.854-1.594,1.127c-0.636,0.272-1.361,0.408-2.181,0.408
	c-0.838,0-1.573-0.136-2.208-0.408c-0.633-0.272-1.166-0.647-1.594-1.127c-0.43-0.479-0.75-1.045-0.967-1.698
	c-0.213-0.65-0.321-1.359-0.321-2.121v-1.99L80.919,58.656L80.919,58.656z"/>
<path fill="#8F8F8F" d="M95.59,37.593h-2.428v-1.959h2.428v-3.687h2.195v3.687h4.007v1.959h-4.007v23.229
	c0,0.896,0.242,1.653,0.73,2.268c0.483,0.613,1.196,0.923,2.135,0.923h0.965V66h-0.965c-0.84,0-1.575-0.138-2.209-0.41
	c-0.633-0.271-1.16-0.647-1.58-1.125c-0.418-0.479-0.735-1.043-0.949-1.696c-0.213-0.65-0.322-1.359-0.322-2.121V37.593
	L95.59,37.593z"/>
<path fill="#8F8F8F" d="M112.266,37.419c-0.289-0.078-0.643-0.117-1.054-0.117c-0.937,0-1.651,0.313-2.149,0.938
	c-0.498,0.622-0.746,1.384-0.746,2.28v24.896h-2.192v-24.72c0-0.781,0.104-1.497,0.319-2.15c0.218-0.654,0.537-1.219,0.969-1.697
	c0.429-0.478,0.961-0.849,1.595-1.111c0.636-0.264,1.367-0.396,2.207-0.396c0.354,0,0.69,0.024,1.022,0.072
	c0.328,0.05,0.636,0.123,0.904,0.22L112.266,37.419z"/>
<path fill="#8F8F8F" d="M125.883,60.092c0,0.861-0.107,1.648-0.322,2.369c-0.215,0.722-0.535,1.347-0.965,1.873
	c-0.429,0.524-0.962,0.937-1.595,1.228c-0.635,0.295-1.368,0.438-2.208,0.438s-1.575-0.131-2.209-0.396
	c-0.634-0.266-1.16-0.637-1.579-1.11c-0.42-0.478-0.737-1.043-0.952-1.697c-0.214-0.651-0.32-1.368-0.32-2.149V40.373
	c0-0.761,0.106-1.467,0.32-2.12c0.215-0.654,0.537-1.22,0.967-1.697c0.432-0.479,0.961-0.85,1.597-1.111
	c0.634-0.264,1.368-0.396,2.204-0.396h5.063L125.883,60.092L125.883,60.092z M115.936,29.052c0-0.975,0.469-1.463,1.405-1.463
	s1.4,0.488,1.4,1.463c0,0.371-0.117,0.691-0.351,0.965c-0.234,0.274-0.591,0.409-1.059,0.409c-0.443,0-0.792-0.136-1.037-0.409
	C116.059,29.744,115.936,29.424,115.936,29.052z M117.926,60.822c0,0.899,0.249,1.657,0.746,2.284
	c0.498,0.623,1.215,0.937,2.148,0.937c0.918,0,1.625-0.354,2.123-1.063c0.498-0.711,0.748-1.576,0.748-2.592V37.011h-2.867
	c-0.938,0-1.651,0.313-2.15,0.938c-0.494,0.625-0.746,1.386-0.746,2.282L117.926,60.822L117.926,60.822z M123.542,29.052
	c0-0.975,0.487-1.463,1.464-1.463c0.936,0,1.403,0.488,1.403,1.463c0,0.371-0.112,0.691-0.335,0.965
	c-0.227,0.273-0.582,0.409-1.068,0.409c-0.468,0-0.83-0.136-1.083-0.409C123.67,29.744,123.542,29.424,123.542,29.052z"/>
<path fill="#8F8F8F" d="M141.314,65.416h-2.049V40.812c0-0.994-0.246-1.778-0.729-2.354c-0.488-0.575-1.203-0.864-2.136-0.864
	h-2.955v27.823h-2.193V35.634h5.063c0.875,0,1.654,0.151,2.34,0.453c0.682,0.303,1.229,0.707,1.638,1.214
	c0.433-0.487,0.985-0.887,1.685-1.198c0.688-0.313,1.467-0.47,2.32-0.47h5.09v29.783h-2.191V37.593h-2.984
	c-0.938,0-1.652,0.289-2.148,0.864c-0.498,0.575-0.748,1.36-0.748,2.354V65.416L141.314,65.416L141.314,65.416z"/>
</svg>
