<?xml version="1.0" encoding="utf-8"?>
<!DOCTYPE svg PUBLIC "-//W3C//DTD SVG 1.1//EN" "http://www.w3.org/Graphics/SVG/1.1/DTD/svg11.dtd">
<svg version="1.1" id="logo" xmlns="http://www.w3.org/2000/svg" xmlns:xlink="http://www.w3.org/1999/xlink" x="0px" y="0px"
	 width="90px" height="30px" viewBox="0 0 90 30" enable-background="new 0 0 90 30" xml:space="preserve">
<path fill="#FFFFFF" d="M9.98,20.97c0.96,1.12,2.26,1.68,3.899,1.68c1.641,0,2.94-0.56,3.9-1.68s1.44-2.64,1.44-4.56V4.799h3.54
	V16.56c0,3.021-0.83,5.345-2.49,6.976c-1.66,1.63-3.79,2.444-6.391,2.444c-2.6,0-4.729-0.814-6.39-2.444
	C5.83,21.904,5,19.58,5,16.56V4.799h3.54V16.41C8.54,18.33,9.021,19.85,9.98,20.97z"/>
<path fill="#FFFFFF" d="M44.03,4.799h3.54V25.77h-3.84l-11.88-15.3v15.3h-3.54V4.799h3.54l12.18,15.66V4.799z"/>
<path fill="#FFFFFF" d="M53.391,4.799h3.54V25.77h-3.54V4.799z"/>
<path fill="#FFFFFF" d="M72.89,25.949l-0.45,0.03c-3.119,0-5.74-1.035-7.859-3.104c-2.12-2.07-3.181-4.65-3.181-7.74
	s1.061-5.67,3.181-7.74c2.119-2.07,4.74-3.105,7.859-3.105c3.12,0,5.74,1.035,7.86,3.105s3.18,4.646,3.18,7.725
	c0,2.34-0.63,4.416-1.89,6.226s-2.94,3.115-5.04,3.915c0.68,0.899,1.54,1.35,2.58,1.35c0.76,0,1.505-0.2,2.235-0.6
	c0.729-0.4,1.284-0.92,1.665-1.561l2.01,2.79C83.3,29.079,81.31,30,79.07,30c-1.28,0-2.511-0.36-3.69-1.08
	C74.199,28.199,73.37,27.21,72.89,25.949z M77.705,9.75c-1.431-1.48-3.186-2.221-5.266-2.221s-3.835,0.74-5.265,2.221
	s-2.145,3.275-2.145,5.385s0.715,3.904,2.145,5.385s3.185,2.221,5.265,2.221s3.835-0.74,5.266-2.221
	c1.43-1.48,2.145-3.275,2.145-5.385S79.135,11.23,77.705,9.75z"/>
</svg>
